<svg xmlns="http://www.w3.org/2000/svg" version="1.0" width="1200" height="600" viewBox="-2 -3 12 6"><path fill="#fcd116" d="M-2-3h12v6H-2z" /><path fill="#009e49" d="M-2 0h12v3H-2z" /><path fill="#ce1126" d="M-2-3h4v6h-4z" /><g id="b"><path id="a" d="M0-1v1h.5" transform="rotate(18 0 -1)" fill="#000" /><g transform="scale(-1 1)"><path d="M0-1v1h.5" transform="rotate(18 0 -1)" fill="#000" /></g></g><g transform="rotate(72)"><g><path d="M0-1v1h.5" transform="rotate(18 0 -1)" fill="#000" /><g transform="scale(-1 1)"><path d="M0-1v1h.5" transform="rotate(18 0 -1)" fill="#000" /></g></g></g><g transform="rotate(144)"><g><path d="M0-1v1h.5" transform="rotate(18 0 -1)" fill="#000" /><g transform="scale(-1 1)"><path d="M0-1v1h.5" transform="rotate(18 0 -1)" fill="#000" /></g></g></g><g transform="rotate(216)"><g><path d="M0-1v1h.5" transform="rotate(18 0 -1)" fill="#000" /><g transform="scale(-1 1)"><path d="M0-1v1h.5" transform="rotate(18 0 -1)" fill="#000" /></g></g></g><g transform="rotate(288)"><g><path d="M0-1v1h.5" transform="rotate(18 0 -1)" fill="#000" /><g transform="scale(-1 1)"><path d="M0-1v1h.5" transform="rotate(18 0 -1)" fill="#000" /></g></g></g></svg>