<svg xmlns="http://www.w3.org/2000/svg" width="1200" height="600" viewBox="-28 -45 180 90" fill="#fcd116"><path fill="#0038a8" d="M-28-45h180V0L0 44z" /><path fill="#ce1126" d="M0 0h152v45H-28z" /><path fill="#fff" d="M49.942 0-28 45v-90z" /><circle r="9" /><g id="c"><g id="b"><path id="a" d="m0 0-3.164-15.909.945-.946zl-1.169-17.831L0-19l1.169 1.169zl2.219-16.855.945.946z" /><g transform="scale(-1)"><path d="m0 0-3.164-15.909.945-.946zl-1.169-17.831L0-19l1.169 1.169zl2.219-16.855.945.946z" /></g></g><g transform="rotate(90)"><g><path d="m0 0-3.164-15.909.945-.946zl-1.169-17.831L0-19l1.169 1.169zl2.219-16.855.945.946z" /><g transform="scale(-1)"><path d="m0 0-3.164-15.909.945-.946zl-1.169-17.831L0-19l1.169 1.169zl2.219-16.855.945.946z" /></g></g></g></g><g transform="rotate(45)"><g><g><path d="m0 0-3.164-15.909.945-.946zl-1.169-17.831L0-19l1.169 1.169zl2.219-16.855.945.946z" /><g transform="scale(-1)"><path d="m0 0-3.164-15.909.945-.946zl-1.169-17.831L0-19l1.169 1.169zl2.219-16.855.945.946z" /></g></g><g transform="rotate(90)"><g><path d="m0 0-3.164-15.909.945-.946zl-1.169-17.831L0-19l1.169 1.169zl2.219-16.855.945.946z" /><g transform="scale(-1)"><path d="m0 0-3.164-15.909.945-.946zl-1.169-17.831L0-19l1.169 1.169zl2.219-16.855.945.946z" /></g></g></g></g></g><path id="d" d="M40.942 0 37.56 1.176l-.073 3.579-2.163-2.853-3.427 1.037L33.942 0l-2.045-2.939 3.427 1.037 2.163-2.853.073 3.579z" /><g transform="rotate(120 -2.019 0)"><path d="M40.942 0 37.56 1.176l-.073 3.579-2.163-2.853-3.427 1.037L33.942 0l-2.045-2.939 3.427 1.037 2.163-2.853.073 3.579z" /></g><g transform="rotate(240 -2.019 0)"><path d="M40.942 0 37.56 1.176l-.073 3.579-2.163-2.853-3.427 1.037L33.942 0l-2.045-2.939 3.427 1.037 2.163-2.853.073 3.579z" /></g></svg>